<svg width="25" height="25" viewBox="0 0 25 25" version="1.1" xmlns="http://www.w3.org/2000/svg" xmlns:xlink="http://www.w3.org/1999/xlink">
<title>Vector</title>
<desc>Created using Figma</desc>
<g id="Canvas" transform="translate(994 487)">
<g id="Vector">
<use xlink:href="#path0_fill" transform="translate(-994 -487)" fill="#FFFFFF"/>
</g>
</g>
<defs>
<path id="path0_fill" d="M 12.4937 0C 5.5875 0 0 5.59375 0 12.5C 0 19.4062 5.5875 25 12.4937 25C 19.4 25 25 19.4062 25 12.5C 25 5.59375 19.4 0 12.4937 0ZM 12.5 22.5C 6.975 22.5 2.5 18.025 2.5 12.5C 2.5 6.975 6.975 2.5 12.5 2.5C 18.025 2.5 22.5 6.975 22.5 12.5C 22.5 18.025 18.025 22.5 12.5 22.5ZM 13.125 6.25L 11.25 6.25L 11.25 13.75L 17.8063 17.6875L 18.75 16.15L 13.125 12.8125L 13.125 6.25Z"/>
</defs>
</svg>
