<svg width="22" height="24" viewBox="0 0 22 24" version="1.1" xmlns="http://www.w3.org/2000/svg" xmlns:xlink="http://www.w3.org/1999/xlink">
<title>Page 1</title>
<desc>Created using Figma</desc>
<g id="Canvas" transform="translate(831 485)">
<g id="Vector">
<use xlink:href="#path0_fill" transform="translate(-826 -485)" fill="#FFFFFF"/>
</g>
<g id="Vector">
<use xlink:href="#path1_fill" transform="translate(-831 -469.996)" fill="#FFFFFF"/>
</g>
</g>
<defs>
<path id="path0_fill" d="M 6 13C 9.309 13 12 10.309 12 7L 12 6C 12 2.691 9.309 0 6 0C 2.691 0 0 2.691 0 6L 0 7C 0 10.309 2.691 13 6 13Z"/>
<path id="path1_fill" d="M 18.322 0.97725C 13.618 -0.32575 8.383 -0.32575 3.678 0.97725C 1.513 1.57725 0 3.56025 0 5.80125L 0 8.99625L 22 8.99625L 22 5.80125C 22 3.56025 20.487 1.57725 18.322 0.97725Z"/>
</defs>
</svg>
