<svg width="25" height="25" viewBox="0 0 25 25" version="1.1" xmlns="http://www.w3.org/2000/svg" xmlns:xlink="http://www.w3.org/1999/xlink">
<title>Vector</title>
<desc>Created using Figma</desc>
<g id="Canvas" transform="translate(1066 485)">
<g id="Vector">
<use xlink:href="#path0_fill" transform="translate(-1066 -485)" fill="#FFFFFF"/>
</g>
</g>
<defs>
<path id="path0_fill" d="M 25 22.7494L 18.6883 16.4377C 19.9417 14.7267 20.6914 12.6249 20.6914 10.3457C 20.6914 4.64124 16.0502 0 10.3457 0C 4.64124 0 0 4.64124 0 10.3457C 0 16.0502 4.64124 20.6914 10.3457 20.6914C 12.6241 20.6914 14.7267 19.9417 16.4377 18.6883L 22.7494 25L 25 22.7494ZM 1.59165 10.3457C 1.59165 5.51904 5.51904 1.59165 10.3457 1.59165C 15.1724 1.59165 19.0998 5.51904 19.0998 10.3457C 19.0998 15.1724 15.1724 19.0998 10.3457 19.0998C 5.51904 19.0998 1.59165 15.1724 1.59165 10.3457Z"/>
</defs>
</svg>
