<svg width="25" height="25" viewBox="0 0 25 25" version="1.1" xmlns="http://www.w3.org/2000/svg" xmlns:xlink="http://www.w3.org/1999/xlink">
<title>Page 1</title>
<desc>Created using Figma</desc>
<g id="Canvas" transform="translate(913 487)">
<g id="Vector">
<use xlink:href="#path0_fill" transform="translate(-906.766 -486.664)" fill="#FFFFFF"/>
</g>
<g id="Vector">
<use xlink:href="#path1_fill" transform="translate(-913 -487)" fill="#FFFFFF"/>
</g>
</g>
<defs>
<path id="path0_fill" d="M 18.4296 9.26777C 17.446 10.3885 16.4319 11.6317 15.3838 12.951C 14.8409 13.628 14.2864 14.3234 13.7089 15.0204C 13.4199 15.3683 13.1278 15.7199 12.833 16.0752L 12.6121 16.3414L 12.5566 16.4082L 12.552 16.4139L 12.5429 16.423L 12.4173 16.5458C 12.2506 16.7043 12.0797 16.8876 11.9143 17.0288C 11.7533 17.1442 11.5947 17.2615 11.4376 17.3819C 11.2678 17.4951 11.0719 17.5934 10.8906 17.702C 10.8444 17.7281 10.7993 17.7564 10.7518 17.7808L 10.6029 17.8421L 10.3056 17.9671C 10.1125 18.0621 9.89844 18.11 9.69046 18.1726C 8.85138 18.4056 7.95186 18.4765 7.04959 18.4081C 6.14787 18.3358 5.2434 18.1149 4.39801 17.7566L 3.77708 17.4615L 3.18747 17.1159L 2.63496 16.7208C 2.54841 16.6497 2.46736 16.5736 2.38301 16.5002L 2.2569 16.3895L 2.19399 16.3348L 2.16267 16.3073L 2.14783 16.2941L 1.68488 15.7614L 1.31782 15.2405L 0.973835 14.6501L 0.680405 14.0291C 0.327355 13.1829 0.100414 12.2815 0.0267814 11.3797C -0.045477 10.4783 0.0273311 9.57796 0.259218 8.7397C 0.494126 7.9031 0.887015 7.12694 1.43239 6.48403C 1.56976 6.32523 1.72527 6.18236 1.86869 6.0296L 1.97776 5.91695L 1.9915 5.90294C 1.9871 5.90569 2.02035 5.87602 1.98545 5.90569L 2.01897 5.87739L 2.08656 5.82134L 2.35554 5.59797C 2.71189 5.30234 3.06466 5.00974 3.41386 4.72043C 4.1065 4.14648 4.80518 3.5893 5.48079 3.04722C 6.80122 1.99851 8.04555 0.984968 9.16597 6.49808e-08C 11.3464 0.5157 13.4147 1.62073 15.112 3.31785C 16.8092 5.01688 17.9142 7.08628 18.4296 9.26777Z"/>
<path id="path1_fill" d="M 3.65736 21.3426C -1.2194 16.4658 -1.21885 8.53115 3.65736 3.65466C 6.50429 0.808005 10.3925 -0.373956 14.1071 0.10273C 13.1235 0.83548 12.0696 1.59103 10.9632 2.39797C 10.259 2.909 9.53723 3.42992 8.79843 3.98463C 8.4256 4.25855 8.05991 4.54044 7.69642 4.82865L 7.42085 5.04406L 7.35216 5.09846L 7.31727 5.12511C 7.27056 5.16385 7.29419 5.14544 7.27963 5.15863L 7.26205 5.17538L 7.12138 5.30974C 6.9362 5.49189 6.7403 5.66636 6.56391 5.86005C 5.85781 6.64363 5.33167 7.60772 5.01159 8.63527C 4.68849 9.66448 4.57859 10.7588 4.6547 11.8388C 4.72915 12.9183 4.97505 13.9909 5.39679 15.0025L 5.74489 15.7488L 6.15894 16.4672C 6.31939 16.7068 6.49468 16.9455 6.66557 17.1827L 7.16314 17.7585C 7.26562 17.8654 7.20298 17.7984 7.23127 17.8264L 7.25051 17.8437L 7.29062 17.8783L 7.3703 17.9478L 7.52965 18.086C 7.63708 18.1772 7.74203 18.272 7.85138 18.3594C 8.07887 18.5198 8.30499 18.6839 8.5355 18.838L 9.25424 19.2501L 10.001 19.5969C 11.0132 20.0136 12.0819 20.265 13.1622 20.3414C 14.2414 20.4211 15.3358 20.309 16.3647 19.9867C 16.621 19.9024 16.8798 19.8312 17.1216 19.7087L 17.4876 19.5419L 17.6703 19.4578C 17.7288 19.4262 17.7851 19.3891 17.8428 19.3556C 18.0709 19.2125 18.3006 19.0861 18.5228 18.9284C 18.7418 18.7556 18.9583 18.5806 19.171 18.4056C 19.3586 18.2325 19.5051 18.0646 19.6732 17.8951L 19.7949 17.7681L 19.8696 17.6863L 19.8971 17.6516L 19.9515 17.5819L 20.1691 17.3038C 20.4612 16.9362 20.7433 16.5669 21.0153 16.1985C 21.5665 15.4644 22.0901 14.7388 22.6004 14.036C 23.4078 12.9293 24.1631 11.8745 24.8967 10.8907C 25.3742 14.6055 24.1925 18.4957 21.3453 21.3429C 16.4688 26.2191 8.53413 26.2191 3.65736 21.3426Z"/>
</defs>
</svg>

